<svg xmlns="http://www.w3.org/2000/svg" viewBox="0 0 176.29 152.58"><title>fair</title><path fill="#fff" stroke="#FFF" stroke-width="4" d="M175,63.2V61.7h-.81L152.68,21.79V13.21L95.18,8.89,95,0H80l-.18,8.78-57.5,4.43v8.42L.8,61.7H0v2A20.56,20.56,0,0,0,20.54,84.24h7.55A20.56,20.56,0,0,0,48.52,65.7H50l-1.35-2.5V61.7h-.8L27.5,23.93l52,3.44L77.29,131H60.46v6.58H41.06v15H134v-15h-19.4V131H97.74L95.57,27.25l51.88-3.33L127.13,61.7h-.81v2a20.56,20.56,0,0,0,20.54,20.54h7.55A20.57,20.57,0,0,0,174.85,65.7h1.44Zm-45,85.38H45.06v-7H130ZM110.57,135v2.18H64.46V135H77.2v0H97.83v0ZM152.32,29.58,169.6,61.7H152.49ZM92.49,18.05a5,5,0,1,1-5-5A5,5,0,0,1,92.49,18.05ZM84,4.06h7l.09,4.53-4.29-.33h-.15l-2.75.21ZM22,30.73l.16,31H5.35Zm6.08,49.51H20.54A16.56,16.56,0,0,1,4.12,65.7H44.5A16.56,16.56,0,0,1,28.09,80.24ZM26.17,61.7,26,29.58,43.28,61.7Zm.18-41.86V16.92L79.77,12.8l0,.62a9,9,0,0,0-.18,9l0,1ZM93.68,131H81.35L83.52,27.64l2.79.19h.13l5.07-.33ZM95.46,22.2a8.91,8.91,0,0,0-.18-8.64v-.65l53.41,4v2.92l-53.2,3.41Zm52.87,8.53.16,31H131.67Zm6.08,49.51h-7.55A16.57,16.57,0,0,1,130.44,65.7h40.39A16.57,16.57,0,0,1,154.41,80.24Z"/></svg>