<svg xmlns="http://www.w3.org/2000/svg" viewBox="0 0 120.22 147"><title>knowledge</title><path fill="#fff" stroke="#FFF" stroke-width="6" d="M23.44,104.3l.89,1.5A62.92,62.92,0,0,1,33,137.65V147h4v-9.35a66.84,66.84,0,0,0-9.23-33.88l-1.22-2.08-.26-.22C26.07,101.29,4,82.35,4,63,4,36.08,13.37,4,58,4c39.79,0,46.49,32.35,47,35.17V51.64l10.37,14.52A4.5,4.5,0,0,1,113.23,73l-7.07,2.52-1.62,13.79a6.27,6.27,0,0,1-3.43,4.89l-.85.42-1.1,4.79a13.54,13.54,0,0,1-9.73,10.06,15.2,15.2,0,0,0-9.86,8.24l-.17.36-.4,9.34,4,.16.36-8.5a11.21,11.21,0,0,1,7.1-5.73,17.5,17.5,0,0,0,12.59-13l.7-3a10.25,10.25,0,0,0,4.76-7.52l1.33-11.32,4.73-1.69a8.5,8.5,0,0,0,4.06-12.94L109,50.36V39l0-.32C108.91,38.29,102.19,0,58,0,37.47,0,22.09,6.48,12.29,19.26,4.13,29.89,0,44.6,0,63,0,83.22,20.72,101.93,23.44,104.3Z"/><path fill="#fff" stroke="#FFF" stroke-width="1" d="M68.73,48.39A13.23,13.23,0,1,0,55.5,61.63,13.25,13.25,0,0,0,68.73,48.39Zm-22.46,0a9.23,9.23,0,1,1,9.23,9.24A9.24,9.24,0,0,1,46.27,48.39Z"/><path fill="#fff" stroke="#FFF" stroke-width="1" d="M62,77V69.71A21.91,21.91,0,0,0,66.21,68l5.18,5.17,9.24-9.23-5.3-5.29a22,22,0,0,0,1.61-4.07H84.5V41.47H76.7a22.71,22.71,0,0,0-1.64-3.79l5.56-5.57-9.23-9.24L65.7,28.56A22.57,22.57,0,0,0,62,27.07V19H49v8.07a22.57,22.57,0,0,0-3.67,1.49l-5.69-5.68-9.23,9.23,5.56,5.57a22.71,22.71,0,0,0-1.64,3.79H26.5V54.53h7.56a22,22,0,0,0,1.61,4.07l-5.3,5.29,9.24,9.23L44.79,68A21.91,21.91,0,0,0,49,69.71V77ZM45.56,63.76l-1.35-.88-4.6,4.59L36,63.89l4.65-4.65-.82-1.34a18.31,18.31,0,0,1-2.28-5.77l-.33-1.6H30.5V45.47h6.87L37.75,44a18,18,0,0,1,2.39-5.49L41,37.1l-5-5,3.58-3.58,5,5L46,32.75a18.37,18.37,0,0,1,5.41-2.19L53,30.2V23H58v7.2l1.56.36A18.37,18.37,0,0,1,65,32.75l1.35.82,5-5L75,32.11l-5,5,.88,1.36A18,18,0,0,1,73.25,44l.38,1.52H80.5v5.06H73.75l-.33,1.6a18.31,18.31,0,0,1-2.28,5.77l-.82,1.34L75,63.89l-3.58,3.58-4.6-4.59-1.35.88a18.42,18.42,0,0,1-5.85,2.47L58,66.58V73H53V66.58l-1.56-.35A18.42,18.42,0,0,1,45.56,63.76Z"/></svg>