<?xml version="1.0" encoding="UTF-8"?>
<svg width="33px" height="29px" viewBox="0 0 33 29" version="1.1" xmlns="http://www.w3.org/2000/svg" xmlns:xlink="http://www.w3.org/1999/xlink">
    <!-- Generator: Sketch 48.2 (47327) - http://www.bohemiancoding.com/sketch -->
    <title>Group 17</title>
    <desc>Created with Sketch.</desc>
    <defs></defs>
    <g id="NAV" stroke="none" stroke-width="1" fill="none" fill-rule="evenodd" transform="translate(-1039.000000, -32.000000)">
        <g id="Group-2" transform="translate(1038.750000, 30.000000)" fill="#b8232f">
            <g id="Group-17" transform="translate(0.996251, 2.500000)">
                <path d="M22.84,26 L9.161,26 L2.303,14 L9.161,2 L22.84,2 L29.697,14 L22.84,26 L22.84,26 Z M31.717,13.504 L24.288,0.504 C24.111,0.194 23.777,0 23.42,0 L8.58,0 C8.223,0 7.889,0.194 7.712,0.504 L0.283,13.504 C0.108,13.811 0.108,14.189 0.283,14.496 L7.712,27.496 C7.891,27.809 8.22,28 8.58,28 L23.42,28 C23.781,28 24.11,27.809 24.288,27.496 L31.717,14.496 C31.893,14.189 31.893,13.811 31.717,13.504 L31.717,13.504 Z" id="Fill-146"></path>
                <path d="M23,14 L22,14 C22,15.656 21.329,17.15 20.24,18.24 C19.15,19.329 17.656,20 16,20 C14.345,20 12.85,19.329 11.76,18.24 C10.671,17.15 10.001,15.656 10,14 C10.001,12.344 10.671,10.85 11.76,9.76 C12.85,8.671 14.345,8 16,8 C17.656,8 19.15,8.671 20.24,9.76 C21.329,10.85 22,12.344 22,14 L24,14 C23.998,9.586 20.414,6.002 16,6 C11.587,6.002 8.002,9.586 8,14 C8.002,18.414 11.587,21.998 16,22 C20.414,21.998 23.998,18.414 24,14 L23,14" id="Fill-147"></path>
            </g>
        </g>
    </g>
</svg>