<?xml version="1.0" encoding="UTF-8"?>
<svg width="147px" height="36px" viewBox="0 0 147 36" version="1.1" xmlns="http://www.w3.org/2000/svg" xmlns:xlink="http://www.w3.org/1999/xlink">
    <!-- Generator: Sketch 48.2 (47327) - http://www.bohemiancoding.com/sketch -->
    <title>Page 1</title>
    <desc>Created with Sketch.</desc>
    <defs>
        <polygon id="path-1" points="0.152260794 0.389807407 69.6608986 0.389807407 69.6608986 25.8910204 0.152260794 25.8910204"></polygon>
    </defs>
    <g id="NAV" stroke="none" stroke-width="1" fill="none" fill-rule="evenodd" transform="translate(-45.000000, -31.000000)">
        <g id="Page-1" transform="translate(45.000000, 31.000000)">
            <g id="Group-3" transform="translate(0.000000, 10.000000)" fill="#b8232f">
                <path d="M19.7975442,0.2767375 C19.8874047,0.253175 19.9395558,0.3644875 19.853707,0.3978 C17.1346256,1.4573 10.8821023,4.2758625 9.75483488,8.1726125 C8.61392791,12.12055 13.1960093,15.911675 22.8367535,19.129175 C29.9156721,21.491925 42.8379279,24.0862375 57.6015209,24.8678625 C70.3665209,25.544675 68.6696023,25.6113 68.6696023,25.6113 C68.6696023,25.6113 46.6120674,26.8471125 31.4778,24.9117375 C6.61052093,21.7332375 -0.0327348837,16.6941125 0.000160465116,12.6511125 C0.029044186,9.1069875 2.6983814,4.7633625 19.7975442,0.2767375" id="Fill-1"></path>
            </g>
            <g id="Group-6" transform="translate(77.000000, 0.000000)">
                <mask id="mask-2" fill="white">
                    <use xlink:href="#path-1"></use>
                </mask>
                <g id="Clip-5"></g>
                <path d="M49.6434534,25.8878026 C49.5525937,25.9111588 49.4998626,25.8008207 49.5866661,25.7677999 C52.3359831,24.7175749 58.6580331,21.9244921 59.7978355,18.0618551 C60.9514291,14.1476733 56.3183959,10.3897366 46.5704488,7.20040323 C39.4128141,4.85914263 26.3468656,2.28673589 11.4191046,1.5119534 C-1.48783946,0.841871246 0.227948513,0.775024108 0.227948513,0.775024108 C0.227948513,0.775024108 22.5307584,-0.449969832 37.8333157,1.46846249 C62.9771135,4.61994263 69.6942409,9.61414869 69.6609798,13.6217554 C69.6317749,17.1348544 66.9327552,21.4404544 49.6434534,25.8878026" id="Fill-4" fill="#b8232f" mask="url(#mask-2)"></path>
            </g>
            <path d="M51.9527982,18.4429061 C50.6651802,22.3425331 46.5656742,23.89436 42.4554859,23.8109112 C37.2680372,23.7066002 35.5079366,19.2597415 38.3222898,15.9964117 C41.1358213,12.7330819 46.5886821,13.0773082 46.5886821,13.0773082 C49.2041817,13.3316666 53.0736092,15.0495887 51.9527982,18.4429061 M55.536271,11.6145469 C52.0119612,10.1541927 45.8622913,9.29563287 39.1793323,10.7551846 C31.8316107,12.3599694 28.9975365,16.2515725 29.0000016,20.4617253 C29.001645,23.5453193 32.5226679,25.6507969 36.0132876,26.3841836 C42.960837,27.8445377 52.6339949,26.7877869 57.4056589,22.3513594 C61.9645002,18.111518 59.9907553,13.4600494 55.536271,11.6145469" id="Fill-7" fill="#231F20"></path>
            <path d="M51.9527982,18.4429061 C50.6651802,22.3425331 46.5656742,23.89436 42.4554859,23.8109112 C37.2680372,23.7066002 35.5079366,19.2597415 38.3222898,15.9964117 C41.1358213,12.7330819 46.5886821,13.0773082 46.5886821,13.0773082 C49.2041817,13.3316666 53.0736092,15.0495887 51.9527982,18.4429061 Z M55.536271,11.6145469 C52.0119612,10.1541927 45.8622913,9.29563287 39.1793323,10.7551846 C31.8316107,12.3599694 28.9975365,16.2515725 29.0000016,20.4617253 C29.001645,23.5453193 32.5226679,25.6507969 36.0132876,26.3841836 C42.960837,27.8445377 52.6339949,26.7877869 57.4056589,22.3513594 C61.9645002,18.111518 59.9907553,13.4600494 55.536271,11.6145469 Z" id="Stroke-9" fill="#FFFFFF"></path>
            <path d="M89,12.406135 L88.1083842,16.6680517 C88.1083842,16.6680517 80.8416345,11.8280951 73.8675218,15.2127031 C69.485222,17.3395618 69.1200303,22.6657279 72.1600695,23.7004602 C76.8624159,25.3017537 82.0162134,24.6040062 86.5895738,22.2352726 L86.0720174,26.4873504 C86.0720174,26.4873504 79.3026701,28.8413255 70.2897722,27.6762267 C63.1221806,26.7489032 62.0032269,22.7624778 62.0000022,20.3929242 C61.9975837,18.3742942 63.9646205,13.8024497 71.6433192,11.8723705 C80.5409358,9.63564313 89,12.406135 89,12.406135" id="Fill-11" fill="#231F20"></path>
            <path d="M89,12.406135 L88.1083842,16.6680517 C88.1083842,16.6680517 80.8416345,11.8280951 73.8675218,15.2127031 C69.485222,17.3395618 69.1200303,22.6657279 72.1600695,23.7004602 C76.8624159,25.3017537 82.0162134,24.6040062 86.5895738,22.2352726 L86.0720174,26.4873504 C86.0720174,26.4873504 79.3026701,28.8413255 70.2897722,27.6762267 C63.1221806,26.7489032 62.0032269,22.7624778 62.0000022,20.3929242 C61.9975837,18.3742942 63.9646205,13.8024497 71.6433192,11.8723705 C80.5409358,9.63564313 89,12.406135 89,12.406135 Z" id="Stroke-13" fill="#FFFFFF"></path>
            <path d="M110.801225,16.3530146 L100.060405,16.3530146 C100.060405,16.3530146 100.669032,13.4860819 105.691019,13.1853099 C111.407424,12.8429419 110.801225,16.3530146 110.801225,16.3530146 M112.588259,10.5039599 C110.339898,9.99440744 107.896485,9.94961162 106.1224,10.0336038 C101.140071,10.2679819 93.8057848,12.1878029 91.5897976,17.1545398 C89.593143,21.6293226 92.9664938,24.9858097 97.2017973,26.1121047 C105.784094,28.3958917 116.43103,25.5529568 116.43103,25.5529568 L117.644239,21.9180957 C117.644239,21.9180957 109.266706,24.285075 104.156501,23.7715229 C100.741873,23.4283549 99.454205,21.4893357 99.2810051,19.6055113 L118.337038,19.3495352 C118.337038,19.3495352 119.688645,16.4202083 118.53209,14.0172324 C117.599725,12.0790131 114.941026,11.0367103 112.588259,10.5039599" id="Fill-15" fill="#231F20"></path>
            <path d="M110.801225,16.3530146 L100.060405,16.3530146 C100.060405,16.3530146 100.669032,13.4860819 105.691019,13.1853099 C111.407424,12.8429419 110.801225,16.3530146 110.801225,16.3530146 Z M112.588259,10.5039599 C110.339898,9.99440744 107.896485,9.94961162 106.1224,10.0336038 C101.140071,10.2679819 93.8057848,12.1878029 91.5897976,17.1545398 C89.593143,21.6293226 92.9664938,24.9858097 97.2017973,26.1121047 C105.784094,28.3958917 116.43103,25.5529568 116.43103,25.5529568 L117.644239,21.9180957 C117.644239,21.9180957 109.266706,24.285075 104.156501,23.7715229 C100.741873,23.4283549 99.454205,21.4893357 99.2810051,19.6055113 L118.337038,19.3495352 C118.337038,19.3495352 119.688645,16.4202083 118.53209,14.0172324 C117.599725,12.0790131 114.941026,11.0367103 112.588259,10.5039599 Z" id="Stroke-17" fill="#FFFFFF"></path>
        </g>
    </g>
</svg>