<svg xmlns="http://www.w3.org/2000/svg" viewBox="0 0 99.97 149.61"><title>quality</title><path fill="#fff" stroke="#FFF" stroke-width="5" d="M97.93,44.6l-5.55-4.49a1.44,1.44,0,0,1-.4-1.73L95,31.92a5.5,5.5,0,0,0-3.71-7.7l-7-1.64a1.43,1.43,0,0,1-1.11-1.39l0-7.14a5.5,5.5,0,0,0-6.68-5.33l-7,1.54A1.42,1.42,0,0,1,68,9.49L64.82,3.08a5.49,5.49,0,0,0-8.33-1.9L50.87,5.59a1.43,1.43,0,0,1-1.77,0L43.48,1.18a5.49,5.49,0,0,0-8.33,1.9L32,9.49a1.43,1.43,0,0,1-1.6.77l-7-1.54a5.5,5.5,0,0,0-6.68,5.33l-.05,7.14a1.42,1.42,0,0,1-1.11,1.39L8.64,24.22a5.5,5.5,0,0,0-3.71,7.7L8,38.38a1.44,1.44,0,0,1-.4,1.73L2,44.6a5.5,5.5,0,0,0,0,8.55l5.55,4.49A1.44,1.44,0,0,1,8,59.37L4.93,65.83a5.5,5.5,0,0,0,3.71,7.7l7,1.63a1.44,1.44,0,0,1,1.11,1.39l.05,7.14A5.5,5.5,0,0,0,23.43,89l1.94-.42L6.3,135.11l19.6-3L37.76,148l11.48-28,11,29.59,12.42-15.5,19.52,3.65L73.85,88.43l2.69.59a5.5,5.5,0,0,0,6.68-5.33l0-7.14a1.45,1.45,0,0,1,1.11-1.39l7-1.63A5.51,5.51,0,0,0,95,65.82L92,59.37a1.44,1.44,0,0,1,.4-1.73l5.55-4.49a5.5,5.5,0,0,0,0-8.55ZM95.38,50l-5.56,4.49a5.48,5.48,0,0,0-1.51,6.62l3.06,6.46a1.44,1.44,0,0,1,0,1.24,1.38,1.38,0,0,1-1,.77l-7,1.64a5.48,5.48,0,0,0-4.24,5.31l0,7.15a1.43,1.43,0,0,1-1.74,1.39l-7-1.54a5.48,5.48,0,0,0-6.12,2.94l-3.15,6.42a1.43,1.43,0,0,1-2.17.49L53.38,89a5.48,5.48,0,0,0-6.79,0L41,93.37a1.44,1.44,0,0,1-2.17-.49l-3.15-6.42a5.43,5.43,0,0,0-6.12-2.94l-7,1.54a1.44,1.44,0,0,1-1.75-1.39l0-7.15a5.47,5.47,0,0,0-4.23-5.31l-7-1.64a1.38,1.38,0,0,1-1-.77,1.41,1.41,0,0,1,0-1.24l3.05-6.46a5.47,5.47,0,0,0-1.51-6.62L4.59,50a1.43,1.43,0,0,1-.53-1.12,1.41,1.41,0,0,1,.53-1.11l5.56-4.5a5.47,5.47,0,0,0,1.51-6.62L8.61,30.18a1.39,1.39,0,0,1,0-1.23,1.42,1.42,0,0,1,1-.78l7-1.64a5.47,5.47,0,0,0,4.23-5.31l0-7.14a1.44,1.44,0,0,1,1.75-1.39l7,1.54a5.47,5.47,0,0,0,6.12-3L38.8,4.87a1.41,1.41,0,0,1,1-.77,1.38,1.38,0,0,1,1.2.27l5.62,4.42a5.48,5.48,0,0,0,6.79,0L59,4.37a1.43,1.43,0,0,1,2.17.5l3.15,6.41a5.48,5.48,0,0,0,6.12,3l7-1.54a1.41,1.41,0,0,1,1.21.28,1.39,1.39,0,0,1,.54,1.11l0,7.14a5.47,5.47,0,0,0,4.24,5.31l7,1.64a1.45,1.45,0,0,1,1,2l-3.06,6.46a5.48,5.48,0,0,0,1.51,6.62l5.56,4.5a1.41,1.41,0,0,1,.53,1.11A1.43,1.43,0,0,1,95.38,50ZM27.67,127.81l-15,2.28L30.12,87.54l.29-.06a1.44,1.44,0,0,1,1.6.77l3.14,6.42a5.52,5.52,0,0,0,3.71,2.94,5.78,5.78,0,0,0,1.23.13,5.47,5.47,0,0,0,3.39-1.17l5.62-4.42a1.43,1.43,0,0,1,1.77,0L55,95.4,36.74,140ZM71,129.66l-9.45,11.81-10-27,6.94-16.92a5.55,5.55,0,0,0,2.66.06,5.5,5.5,0,0,0,3.71-2.94L68,88.25a1.42,1.42,0,0,1,1.19-.79l16.68,45Z"/></svg>