<svg xmlns="http://www.w3.org/2000/svg" viewBox="0 0 86 86"><title>time</title><path fill="#fff" stroke="#FFF" stroke-width="1" d="M43,0A43,43,0,1,0,86,43,43,43,0,0,0,43,0Zm0,82A39,39,0,1,1,82,43,39.05,39.05,0,0,1,43,82Z"/><path fill="#fff" d="M75.14,32.16a5,5,0,0,0-6.43-3L47.27,36.85a8.16,8.16,0,0,0-1.61-.76L36.92,11.8a5,5,0,1,0-9.45,3.4L36.2,39.49q-.23.38-.42.78a8,8,0,0,0-.29,6.16,8.07,8.07,0,0,0,7.58,5.32,7.79,7.79,0,0,0,2.71-.48,8,8,0,0,0,4.89-5l21.44-7.71a5,5,0,0,0,3-6.43Zm-4.38,2.67L50.91,42a6.6,6.6,0,0,0-.28-1h0a7.21,7.21,0,0,0-.41-.94L70.07,32.9a1,1,0,0,1,.34-.06,1.12,1.12,0,0,1,.44.09,1.07,1.07,0,0,1,.53.58,1,1,0,0,1,0,.79A1.08,1.08,0,0,1,70.76,34.83ZM31.85,12.54a1,1,0,0,1,.34-.06,1,1,0,0,1,1,.67l8.16,22.7a7.34,7.34,0,0,0-1,.28,8.63,8.63,0,0,0-.94.41L31.23,13.85a1,1,0,0,1,0-.79A1,1,0,0,1,31.85,12.54Zm12.58,35a4,4,0,1,1,2.44-5.18h0A4.06,4.06,0,0,1,44.43,47.51Z"/></svg>