<?xml version="1.0" encoding="UTF-8"?><svg xmlns="http://www.w3.org/2000/svg" viewBox="0 0 625 625"><defs><style>.cls-1{stroke:#000;stroke-miterlimit:10;}.cls-1,.cls-2{fill:#fff;}.cls-3,.cls-2{stroke-width:0px;}</style></defs><g id="Snow"><path class="cls-1" d="M111.9,278.17h401.19v-4.77h-50.12l50.12-24.09h-18.69l-50.14,24.09h-21.35l25.53-12.27h-18.72l-25.53,12.27h-21.34l43.33-20.82-50.09.02,18.43-8.86.05-.02h29.48l16.21-7.79h-29.48l18.49-8.88h57.9l16.19-7.79h-57.88l43.41-20.86-5.42-7.81-43.41,20.86,28.94-41.72-16.2,7.78-28.95,41.73-18.49,8.88,14.74-21.25-16.21,7.79-14.74,21.25-.05.02-18.43,8.86,25.1-36.1-43.33,20.82,10.64-15.34.03-.04,25.53-12.27,9.36-13.49-25.53,12.27,10.67-15.39,50.14-24.09,9.34-13.48-50.12,24.09,25.99-37.06-9.39-5.51-25.99,38.06v-49.14s-9.36,13.47-9.36,13.47v49.16l-10.67,15.39v-24.53s-9.36,13.49-9.36,13.49v24.53l-.03.04-10.64,15.34v-41.64l-25.13,36.19v-17.76l14.74-21.25v-15.58l-14.74,21.25v-17.77l28.95-43.6v-15.56l-28.95,43.58v-45.72h-10.84v45.72l-28.95-43.58v15.56l28.95,43.6v17.77l-14.74-21.25v15.58l14.74,21.25v17.76l-25.01-36.06.1,41.81-10.64-15.34-.03-.04v-24.53l-9.36-13.49v24.53s-10.67-15.39-10.67-15.39v-49.29l-9.36-13.47v49.27l-26.22-38.29-9.39,5.51,26.22,37.29-50.13-24.08,9.35,13.47,50.14,24.09,10.67,15.39-25.53-12.27,9.36,13.49,25.53,12.27.03.04,10.64,15.34-43.31-20.81,24.99,36.03-18.43-8.86-.05-.02-14.74-21.25-16.21-7.79,14.74,21.25-18.49-8.88-28.95-41.73-16.2-7.78,28.94,41.72-43.41-20.86-5.42,7.81,43.41,20.86h-57.88s16.19,7.79,16.19,7.79h57.9l18.49,8.88h-29.48s16.21,7.79,16.21,7.79h29.48l.05.02,18.43,8.86h-50.24s43.33,20.82,43.33,20.82h-21.34l-25.53-12.27h-18.72l25.53,12.27h-21.35l-50.14-24.09h-18.7s50.12,24.09,50.12,24.09h-50.12v4.51ZM391.21,260.39l-27.07,13.01h-31.33l27.03-12.99.05-.02h31.33ZM343.06,243.04l.03-.04,27.03-12.99-15.65,22.57-.05.02-26.98,12.97,15.63-22.53ZM317.94,235.18v-.05l15.77-22.73v26.09s-.03.04-.03.04l-15.74,22.69v-26.05ZM307.1,235.13v26.09l-15.53-22.39-.03-.04v-26.09s15.56,22.43,15.56,22.43ZM282.15,243.3l.03.04,15.6,22.5-27.06-13-.05-.02-15.63-22.54,27.1,13.02ZM233.74,260.63h31.53s.05.02.05.02l27.39,13.01h-31.84l-27.12-13.03Z"/></g><g id="Fire"><path class="cls-1" d="M309.78,379.99c31.4,48.01-2.5,47.3,4.46,74.31-32.13-38.68.1-51.75-4.46-74.31Z"/><path class="cls-1" d="M349.02,485.05c10.21,20.13-38.07,38.34,3.77,47.34-10.73-9.83,20.49-8.01-3.77-47.34Z"/><path class="cls-1" d="M268.39,488.33c-10.21,20.13,38.07,38.34-3.77,47.34,10.73-9.83-20.49-8.01,3.77-47.34Z"/><path class="cls-1" d="M332.17,533.47c-37.11,12.06-70.28-27.22-49.66-76.83-2.22,11.5,9.6,19.93,10.36,38.42,6.95-7.76-15.53-50.63.83-69.24-1.71,27.66,19.92,36.49,17.88,47.89,15.94-6.82-.94-19.41,16.5-43.65.79,9.7,18.28,32.82-4.73,50.05,7.73-1.81,16.64-10.22,18.37-17.22,17.81,42.94-48.21,63.69-9.55,70.58Z"/><path class="cls-1" d="M304.31,379.88c-10.38,53.87-36.88,36.71-51.26,61.77,2.93-46.74,38.25-41.45,51.26-61.77Z"/><path class="cls-1" d="M258.09,483.32c-6.71,21.14-58.62,12.12-31.91,39.81-1.3-13.13,22.24,3.6,31.91-39.81Z"/><path class="cls-1" d="M191.42,446.5c-22.99,11.15,2.06,49.37-37.92,36.12,15.8-2.64-10.43-16.45,37.92-36.12Z"/><path class="cls-1" d="M208.95,513.91c-38.47-8.48-35.94-56.21,17.09-85.91-10.26,8.14-7.04,20.68-20.08,35.87,11.26-2.83,24.97-48.2,51.73-55.11-21.77,21.34-11.04,39.01-21.07,47.15,17.74,2.33,13.56-16.03,45.34-26.93-6.53,8.17-9.64,35.26-40.68,37.82,7.49,2.33,20.8-.05,27.34-4.82-17.48,43.15-85.4,27.49-59.66,51.92Z"/><path class="cls-1" d="M298.42,379.13c-49.41,36.47-56.7,9.36-87.07,21.36,38.17-34.81,61.4-12.33,87.07-21.36Z"/><path class="cls-1" d="M183.23,435.51c-21.43,12.94-54.6-21.06-55.24,14.35,9.09-10.88,14.41,14.36,55.24-14.35Z"/><path class="cls-1" d="M160,372.22c-26.32-3.29-36.34,39.44-57.05,8.36,14.24,6.17,4.59-18.21,57.05-8.36Z"/><path class="cls-1" d="M160,362.56c-26.32,3.29-36.34-39.44-57.05-8.36,14.24-6.17,4.59,18.21,57.05,8.36Z"/><path class="cls-1" d="M121.76,433.73c-23.2-26.6,15.43-62.38,79.21-57.89-14.18.99-21.33,12.41-43.08,17.44,10.87,3.66,56.33-24.48,82.31-15.94-33.22,5.27-38.51,24.58-52.51,25.69,11.92,11.03,22.79-5.4,55.72,2.64-11.32,2.96-34.54,22.4-60.49,8.25,4,5.71,16.11,10.78,24.83,10.47-46.66,24.45-87.1-23.04-85.99,9.34Z"/><path class="cls-1" d="M319.59,380.33c10.47,53.86,36.94,36.67,51.35,61.71-3-46.74-38.31-41.4-51.35-61.71Z"/><path class="cls-1" d="M365.97,483.71c6.74,21.13,58.63,12.04,31.97,39.77,1.28-13.14-22.23,3.63-31.97-39.77Z"/><path class="cls-1" d="M432.59,446.81c23,11.12-1.99,49.37,37.98,36.07-15.81-2.62,10.4-16.46-37.98-36.07Z"/><path class="cls-1" d="M415.16,514.24c38.46-8.53,35.85-56.26-17.22-85.89,10.27,8.13,7.08,20.67,20.14,35.85-11.26-2.81-25.04-48.17-51.81-55.05,21.8,21.32,11.1,39,21.14,47.13-17.74,2.35-13.59-16.01-45.38-26.87,6.54,8.16,9.69,35.25,40.74,37.77-7.49,2.34-20.8-.02-27.35-4.79,17.54,43.13,85.44,27.38,59.74,51.85Z"/><path class="cls-1" d="M326.58,378.73c49.41,36.47,56.7,9.36,87.07,21.36-38.17-34.81-61.4-12.33-87.07-21.36Z"/><path class="cls-1" d="M441.77,435.1c21.43,12.94,54.6-21.06,55.24,14.35-9.09-10.88-14.41,14.36-55.24-14.35Z"/><path class="cls-1" d="M465,371.82c26.32-3.29,36.34,39.44,57.05,8.36-14.24,6.17-4.59-18.21-57.05-8.36Z"/><path class="cls-1" d="M465,362.56c26.32,3.29,36.34-39.44,57.05-8.36-14.24-6.17-4.59,18.21-57.05,8.36Z"/><path class="cls-1" d="M503.24,433.33c23.2-26.6-15.43-62.38-79.21-57.89,14.18.99,21.33,12.41,43.08,17.44-10.87,3.66-56.33-24.48-82.31-15.94,33.22,5.27,38.51,24.58,52.51,25.69-11.92,11.03-22.79-5.4-55.72,2.64,11.32,2.96,34.54,22.4,60.49,8.25-4,5.71-16.11,10.78-24.83,10.47,46.66,24.45,87.1-23.04,85.99,9.34Z"/><path class="cls-1" d="M555.37,327.35l-2.08,9.44h5.32c.42,0,.75.1.98.31.23.21.34.47.34.78s-.11.58-.34.77c-.22.2-.55.3-.98.3h-6.34c-.57,0-.98-.13-1.23-.38-.25-.25-.51-.6-.38-1.23l2.08-9.98c.1-.55.27-.93.5-1.19.24-.27.55-.4.94-.4s.72.13.96.39c.24.26.36.65.22,1.2Z"/><path class="cls-1" d="M544.29,327.35l-2.08,9.44h5.32c.42,0,.75.1.98.31.23.21.34.47.34.78s-.11.58-.34.77c-.22.2-.55.3-.98.3h-6.34c-.57,0-.98-.13-1.23-.38-.25-.25-.51-.65-.38-1.23l2.08-9.98c.1-.55.27-.93.5-1.19.24-.27.55-.4.94-.4s.72.13.96.39c.24.26.36.65.22,1.2Z"/><path class="cls-1" d="M573.35,334.85c-.07.41-.24.86-.52,1.34s-.67.95-1.18,1.42c-.51.46-1.13.84-1.85,1.13-.72.29-1.54.43-2.44.43-.68,0-1.3-.07-1.83-.19s-1.02-.33-1.43-.61c-.41-.27-.78-.64-1.09-1.08-.28-.41-.5-.86-.66-1.37-.16-.5-.26-1.04-.29-1.61-.03-.57,0-1.18.11-1.82.17-1.04.47-1.98.9-2.8s.98-1.53,1.64-2.12c.66-.59,1.39-1.03,2.2-1.34s1.64-.46,2.5-.46c1.05,0,1.95.21,2.7.63.75.42,1.3.94,1.64,1.55.34.62.46,1.2.38,1.75-.05.3-.2.57-.44.8-.25.23-.52.35-.82.35-.34,0-.58-.08-.72-.24s-.29-.43-.43-.82c-.24-.64-.57-1.12-.98-1.44-.41-.32-.96-.48-1.64-.48-1.08,0-2,.41-2.77,1.23-.77.82-1.27,1.98-1.51,3.49-.16,1.01-.15,1.85.03,2.52s.5,1.17.97,1.5c.47.33,1.05.49,1.74.49.75,0,1.42-.19,2-.56s1.06-.92,1.44-1.65c.17-.34.35-.62.55-.84.2-.21.48-.32.85-.32.31,0,.56.11.75.33.19.22.26.49.21.81Z"/><path class="cls-1" d="M533.08,338.81c-.77,0-1.44-.24-2-.71s-.84-1.14-.84-2c0-.74.28-1.36.83-1.86s1.2-.76,1.95-.76c.56,0,1.07.15,1.53.46s.81.75,1.07,1.34.39,1.32.39,2.19c0,1.16-.25,2.25-.74,3.26s-1.09,1.82-1.8,2.41-1.35.89-1.92.89c-.36,0-.66-.12-.89-.36s-.34-.52-.34-.83c0-.48.24-.87.72-1.16,1.37-.76,2.06-1.72,2.06-2.87Z"/><path class="cls-1" d="M190.67,349.82v4.92h7.51v-4.92c0-.7.16-1.23.47-1.58s.73-.53,1.25-.53.95.17,1.27.52.49.88.49,1.59v13.54c0,.71-.16,1.24-.49,1.59s-.75.53-1.27.53-.94-.18-1.25-.53-.47-.88-.47-1.59v-5.78h-7.51v5.78c0,.71-.16,1.24-.49,1.59s-.75.53-1.27.53-.94-.18-1.25-.53-.47-.88-.47-1.59v-13.54c0-.7.15-1.23.46-1.58s.73-.53,1.26-.53.95.17,1.27.52.49.88.49,1.59Z"/><path class="cls-1" d="M216.72,350.69h-7.84v4.22h7.22c.53,0,.93.12,1.19.36s.39.55.39.94-.13.71-.39.96-.66.37-1.2.37h-7.22v4.89h8.11c.55,0,.96.13,1.24.38s.42.59.42,1.01-.14.74-.42.99-.69.38-1.24.38h-9.46c-.76,0-1.3-.17-1.63-.5s-.5-.88-.5-1.63v-12.91c0-.5.07-.91.22-1.22s.38-.55.7-.69.72-.22,1.21-.22h9.19c.55,0,.97.12,1.24.37s.4.57.4.97-.13.73-.4.98-.68.37-1.24.37Z"/><path class="cls-1" d="M232.4,363.24l-.82-2.16h-6.98l-.82,2.2c-.32.86-.59,1.44-.82,1.74s-.6.45-1.11.45c-.44,0-.82-.16-1.16-.48s-.5-.68-.5-1.09c0-.23.04-.48.12-.73s.21-.6.39-1.04l4.39-11.16c.12-.32.28-.71.45-1.15s.36-.82.56-1.12.46-.54.79-.72.72-.28,1.2-.28.89.09,1.21.28.59.42.79.71.37.6.5.93.31.78.52,1.33l4.49,11.09c.35.84.53,1.46.53,1.84s-.17.76-.5,1.1-.73.5-1.2.5c-.27,0-.51-.05-.7-.15s-.36-.23-.49-.4-.28-.43-.43-.77-.28-.65-.39-.92ZM225.51,358.47h5.13l-2.59-7.09-2.54,7.09Z"/><path class="cls-1" d="M247.72,350.88h-3.8v12.48c0,.72-.16,1.25-.48,1.6s-.73.52-1.24.52-.94-.18-1.26-.53-.49-.88-.49-1.59v-12.48h-3.8c-.59,0-1.04-.13-1.32-.39s-.43-.61-.43-1.04.15-.8.45-1.05.74-.39,1.31-.39h11.06c.6,0,1.05.13,1.34.4s.44.61.44,1.04-.15.78-.45,1.04-.74.39-1.34.39Z"/><path class="cls-1" d="M251.7,363.36v-13.54c0-.7.16-1.23.48-1.58s.73-.53,1.24-.53.95.17,1.27.52.49.88.49,1.59v13.54c0,.71-.16,1.24-.49,1.59s-.75.53-1.27.53-.91-.18-1.24-.53-.49-.88-.49-1.59Z"/><path class="cls-1" d="M263.61,349.8l6.69,10.12v-10.22c0-.66.14-1.16.43-1.49s.67-.5,1.15-.5.89.17,1.18.5.43.83.43,1.49v13.51c0,1.51-.62,2.26-1.88,2.26-.31,0-.59-.04-.84-.13s-.48-.23-.7-.43-.42-.42-.61-.69-.38-.53-.56-.8l-6.53-10.01v10.07c0,.66-.15,1.15-.46,1.49s-.7.5-1.17.5-.89-.17-1.18-.51-.45-.83-.45-1.48v-13.25c0-.56.06-1,.19-1.32.15-.35.39-.64.74-.86s.71-.33,1.11-.33c.31,0,.58.05.8.15s.42.24.59.41.34.39.52.67.36.56.54.86Z"/><path class="cls-1" d="M293,358.2v3.29c0,.44-.04.79-.13,1.05s-.24.5-.47.71-.53.41-.88.61c-1.04.56-2.04.97-3,1.23s-2.01.39-3.14.39c-1.32,0-2.52-.2-3.61-.61s-2.01-1-2.78-1.77-1.35-1.71-1.76-2.81-.62-2.33-.62-3.69.2-2.56.6-3.67.98-2.05,1.76-2.82,1.71-1.37,2.82-1.78,2.37-.62,3.77-.62c1.16,0,2.18.15,3.07.46s1.61.7,2.17,1.17.97.96,1.25,1.49.42.99.42,1.39c0,.44-.16.81-.49,1.12s-.71.46-1.17.46c-.25,0-.49-.06-.72-.18s-.42-.28-.58-.49c-.43-.67-.79-1.18-1.09-1.52s-.7-.63-1.2-.87-1.15-.35-1.93-.35-1.52.14-2.16.42-1.17.68-1.62,1.21-.79,1.17-1.03,1.94-.36,1.61-.36,2.54c0,2.02.46,3.57,1.39,4.65s2.22,1.63,3.87,1.63c.8,0,1.56-.11,2.27-.32s1.42-.51,2.15-.9v-2.79h-2.7c-.65,0-1.14-.1-1.47-.29s-.5-.53-.5-1c0-.38.14-.7.42-.95s.65-.38,1.13-.38h3.95c.48,0,.89.04,1.23.13s.61.28.81.57.31.74.31,1.34Z"/><path class="cls-1" d="M304.16,351.65c0-.73.19-1.39.57-1.99s.94-1.07,1.67-1.42,1.6-.53,2.59-.53,1.84.18,2.55.55,1.26.85,1.61,1.44.53,1.21.53,1.85c0,.88-.29,1.64-.87,2.29s-1.43,1.31-2.55,1.98c.39.46.75.89,1.09,1.3s.66.79.97,1.14.6.65.86.9c.12-.22.3-.63.54-1.23s.48-1.04.69-1.3.52-.4.91-.4c.37,0,.69.13.97.39s.42.58.42.96c0,.34-.12.83-.36,1.46s-.59,1.33-1.05,2.09c.29.25.75.63,1.38,1.14s1.02.85,1.16,1.04.22.43.22.73c0,.41-.15.75-.44,1.03s-.62.42-.98.42-.72-.12-1.07-.35-1.07-.81-2.19-1.72c-.51.48-1.03.87-1.58,1.17s-1.12.53-1.75.68-1.31.22-2.08.22c-.98,0-1.85-.14-2.63-.43s-1.42-.67-1.94-1.15-.9-1.02-1.15-1.61-.38-1.19-.38-1.8.09-1.12.28-1.61.45-.93.79-1.32.76-.77,1.25-1.12,1.07-.7,1.73-1.04c-.59-.73-1.03-1.39-1.33-1.96s-.45-1.17-.45-1.78ZM307.47,357.26c-.8.46-1.39.92-1.79,1.38s-.59,1.01-.59,1.64c0,.36.07.7.22,1.03s.36.63.63.91.6.5.97.64.75.22,1.16.22.79-.06,1.16-.19.73-.3,1.07-.53.68-.52,1.04-.86c-.7-.64-1.32-1.28-1.88-1.9s-1.22-1.41-1.99-2.35ZM308.67,354.05c.8-.51,1.37-.94,1.73-1.28s.53-.77.53-1.26-.18-.89-.53-1.22-.8-.49-1.34-.49-.99.17-1.35.5-.54.73-.54,1.18c0,.23.07.49.21.76s.31.54.51.8.47.6.8,1.01Z"/><path class="cls-1" d="M341.19,359.76c0,.55-.13,1.14-.4,1.78s-.69,1.26-1.27,1.88-1.32,1.11-2.21,1.49-1.95.57-3.14.57c-.91,0-1.73-.09-2.47-.26s-1.42-.44-2.02-.8-1.16-.84-1.67-1.44c-.45-.54-.84-1.14-1.16-1.81s-.56-1.38-.72-2.14-.24-1.56-.24-2.41c0-1.38.2-2.62.6-3.71s.98-2.03,1.73-2.81,1.63-1.37,2.64-1.78,2.08-.61,3.22-.61c1.39,0,2.63.28,3.71.83s1.92,1.24,2.5,2.06.87,1.59.87,2.31c0,.4-.14.75-.42,1.05s-.62.46-1.02.46c-.45,0-.78-.11-1-.32s-.47-.57-.74-1.09c-.45-.85-.99-1.49-1.6-1.91s-1.37-.63-2.27-.63c-1.43,0-2.57.54-3.42,1.63s-1.27,2.63-1.27,4.63c0,1.34.19,2.45.56,3.33s.91,1.55,1.59,1.99,1.49.66,2.41.66c1,0,1.85-.25,2.54-.74s1.21-1.22,1.56-2.19c.15-.45.33-.82.55-1.11s.57-.43,1.05-.43c.41,0,.77.14,1.07.43s.45.65.45,1.08Z"/><path class="cls-1" d="M351.88,347.71c1.78,0,3.31.36,4.59,1.08s2.24,1.75,2.9,3.08.98,2.9.98,4.69c0,1.33-.18,2.54-.54,3.62s-.9,2.03-1.62,2.82-1.6,1.41-2.65,1.83-2.25.63-3.6.63-2.55-.22-3.61-.65-1.95-1.04-2.66-1.83-1.25-1.74-1.61-2.85-.54-2.31-.54-3.6.19-2.53.57-3.63.93-2.04,1.65-2.81,1.59-1.37,2.62-1.78,2.2-.62,3.52-.62ZM356.82,356.55c0-1.26-.2-2.35-.61-3.27s-.99-1.62-1.74-2.09-1.62-.71-2.6-.71c-.7,0-1.34.13-1.93.39s-1.1.64-1.52,1.14-.76,1.14-1.01,1.92-.37,1.65-.37,2.62.12,1.86.37,2.65.59,1.44,1.04,1.96.96.91,1.55,1.17,1.22.39,1.92.39c.89,0,1.71-.22,2.46-.67s1.34-1.13,1.78-2.06.66-2.07.66-3.43Z"/><path class="cls-1" d="M370.88,347.71c1.78,0,3.31.36,4.59,1.08s2.24,1.75,2.9,3.08.98,2.9.98,4.69c0,1.33-.18,2.54-.54,3.62s-.9,2.03-1.62,2.82-1.6,1.41-2.65,1.83-2.25.63-3.6.63-2.55-.22-3.61-.65-1.95-1.04-2.66-1.83-1.25-1.74-1.61-2.85-.54-2.31-.54-3.6.19-2.53.57-3.63.93-2.04,1.65-2.81,1.59-1.37,2.62-1.78,2.2-.62,3.52-.62ZM375.83,356.55c0-1.26-.2-2.35-.61-3.27s-.99-1.62-1.74-2.09-1.62-.71-2.6-.71c-.7,0-1.34.13-1.93.39s-1.1.64-1.52,1.14-.76,1.14-1.01,1.92-.37,1.65-.37,2.62.12,1.86.37,2.65.59,1.44,1.04,1.96.96.91,1.55,1.17,1.22.39,1.92.39c.89,0,1.71-.22,2.46-.67s1.34-1.13,1.78-2.06.66-2.07.66-3.43Z"/><path class="cls-1" d="M385.74,349.82v12.5h7.05c.56,0,.99.14,1.29.41s.45.62.45,1.03-.15.76-.45,1.03-.73.39-1.3.39h-8.4c-.76,0-1.3-.17-1.63-.5s-.5-.88-.5-1.63v-13.23c0-.7.16-1.23.47-1.58s.73-.53,1.25-.53.95.17,1.27.52.49.88.49,1.59Z"/><path class="cls-1" d="M396.97,363.36v-13.54c0-.7.16-1.23.48-1.58s.73-.53,1.24-.53.95.17,1.27.52.49.88.49,1.59v13.54c0,.71-.16,1.24-.49,1.59s-.75.53-1.27.53-.91-.18-1.24-.53-.49-.88-.49-1.59Z"/><path class="cls-1" d="M408.88,349.8l6.69,10.12v-10.22c0-.66.14-1.16.43-1.49s.67-.5,1.15-.5.89.17,1.18.5.43.83.43,1.49v13.51c0,1.51-.62,2.26-1.88,2.26-.31,0-.59-.04-.84-.13s-.48-.23-.7-.43-.42-.42-.61-.69-.38-.53-.56-.8l-6.53-10.01v10.07c0,.66-.15,1.15-.46,1.49s-.7.5-1.17.5-.89-.17-1.18-.51-.45-.83-.45-1.48v-13.25c0-.56.06-1,.19-1.32.15-.35.39-.64.74-.86s.71-.33,1.11-.33c.31,0,.58.05.8.15s.42.24.59.41.34.39.52.67.36.56.54.86Z"/><path class="cls-1" d="M438.27,358.2v3.29c0,.44-.04.79-.13,1.05s-.24.5-.47.71-.53.41-.88.61c-1.04.56-2.04.97-3,1.23s-2.01.39-3.14.39c-1.32,0-2.52-.2-3.61-.61s-2.01-1-2.78-1.77-1.35-1.71-1.76-2.81-.62-2.33-.62-3.69.2-2.56.6-3.67.98-2.05,1.76-2.82,1.71-1.37,2.82-1.78,2.37-.62,3.77-.62c1.16,0,2.18.15,3.07.46s1.61.7,2.17,1.17.97.96,1.25,1.49.42.99.42,1.39c0,.44-.16.81-.49,1.12s-.71.46-1.17.46c-.25,0-.49-.06-.72-.18s-.42-.28-.58-.49c-.43-.67-.79-1.18-1.09-1.52s-.7-.63-1.2-.87-1.15-.35-1.93-.35-1.52.14-2.16.42-1.17.68-1.62,1.21-.79,1.17-1.03,1.94-.36,1.61-.36,2.54c0,2.02.46,3.57,1.39,4.65s2.22,1.63,3.87,1.63c.8,0,1.56-.11,2.27-.32s1.42-.51,2.15-.9v-2.79h-2.7c-.65,0-1.14-.1-1.47-.29s-.5-.53-.5-1c0-.38.14-.7.42-.95s.65-.38,1.13-.38h3.95c.48,0,.89.04,1.23.13s.61.28.81.57.31.74.31,1.34Z"/><polygon class="cls-2" points="98.3 338.39 116.57 288.19 141.3 288.19 138.89 294.79 121.21 294.79 116.34 308.17 127.21 308.17 124.81 314.78 113.93 314.78 105.34 338.39 98.3 338.39"/><path class="cls-3" d="M140.59,288.69l-2.04,5.59h-17.68l-.24.66-4.51,12.38-.49,1.34h10.87l-2.04,5.62h-10.87l-.24.66-8.35,22.94h-5.98l17.91-49.19h23.67M142.02,287.69h-25.8l-18.63,51.19h8.11l8.59-23.6h10.87l2.77-7.62h-10.87l4.51-12.38h17.68l2.77-7.59h0Z"/><polygon class="cls-2" points="499.56 338.36 517.82 288.19 524.86 288.19 509 331.77 526.63 331.77 524.23 338.36 499.56 338.36"/><path class="cls-3" d="M524.15,288.69l-15.37,42.23-.49,1.34h17.63l-2.04,5.6h-23.61l17.9-49.17h5.98M525.58,287.69h-8.11l-18.63,51.17h25.74l2.76-7.6h-17.63l15.86-43.58h0Z"/><polygon class="cls-2" points="336.76 338.36 345.35 314.78 331.93 314.78 323.34 338.36 316.3 338.36 334.56 288.19 341.61 288.19 334.34 308.17 347.76 308.17 355.03 288.19 362.07 288.19 343.81 338.36 336.76 338.36"/><path class="cls-3" d="M361.36,288.69l-17.9,49.17h-5.98l8.09-22.24.49-1.34h-14.48l-.24.66-8.35,22.92h-5.97l17.9-49.17h5.98l-6.78,18.63-.49,1.34h14.48l.24-.66,7.03-19.32h5.98M362.78,287.69h-8.11l-7.27,19.98h-12.35l7.27-19.98h-8.11l-18.63,51.17h8.1l8.59-23.58h12.35l-8.58,23.58h8.11l18.63-51.17h0Z"/><polygon class="cls-2" points="284.82 338.36 303.09 288.19 330.63 288.19 325.39 302.61 318.34 302.61 321.12 294.99 307.66 294.99 294.27 331.77 307.73 331.77 310.5 324.15 317.55 324.15 312.37 338.36 284.82 338.36"/><path class="cls-3" d="M329.92,288.69l-4.88,13.42h-5.98l2.28-6.28.49-1.34h-14.52l-.24.66-13.02,35.78-.49,1.34h14.52l.24-.66,2.53-6.96h5.98l-4.81,13.22h-26.49l17.91-49.17h26.48M331.35,287.69h-28.61l-18.63,51.17h28.62l5.54-15.22h-8.11l-2.77,7.62h-12.4l13.02-35.78h12.4l-2.77,7.62h8.11l5.61-15.42h0Z"/><polygon class="cls-2" points="256.41 338.36 274.67 288.19 299.29 288.19 296.87 294.99 279.24 294.99 274.45 308.17 285.27 308.17 282.86 314.78 272.04 314.78 265.86 331.77 283.57 331.77 281.17 338.39 256.41 338.36"/><path class="cls-3" d="M298.58,288.69l-2.06,5.8h-17.63l-.24.66-4.43,12.18-.49,1.34h10.82l-2.04,5.62h-10.83l-.24.66-5.82,15.98-.49,1.34h17.72l-2.04,5.62-23.69-.02,17.9-49.17h23.56M300,287.69h-25.67l-18.63,51.17,25.82.02,2.77-7.62h-17.72l5.82-15.98h10.83l2.77-7.62h-10.82l4.43-12.18h17.63l2.77-7.8h0Z"/><polygon class="cls-2" points="187.6 338.36 205.86 288.19 212.9 288.19 197.04 331.77 214.67 331.77 212.27 338.39 187.6 338.36"/><path class="cls-3" d="M212.19,288.69l-15.37,42.23-.49,1.34h17.63l-2.04,5.62-23.6-.02,17.9-49.17h5.98M213.62,287.69h-8.11l-18.63,51.17,25.73.02,2.77-7.62h-17.63l15.86-43.58h0Z"/><polygon class="cls-2" points="158.93 338.36 177.2 288.19 201.81 288.19 199.4 294.99 181.77 294.99 176.97 308.17 187.79 308.17 185.38 314.78 174.56 314.78 168.38 331.77 186.1 331.77 183.69 338.39 158.93 338.36"/><path class="cls-3" d="M201.1,288.69l-2.06,5.8h-17.63l-.24.66-4.43,12.18-.49,1.34h10.82l-2.04,5.62h-10.82l-.24.66-5.82,15.98-.49,1.34h17.72l-2.04,5.62-23.69-.02,17.9-49.17h23.56M202.52,287.69h-25.67l-18.63,51.17,25.82.02,2.77-7.62h-17.72l5.82-15.98h10.82l2.77-7.62h-10.82l4.43-12.18h17.63l2.77-7.8h0Z"/><polygon class="cls-2" points="127.42 338.36 145.68 288.19 152.73 288.19 136.87 331.77 150.23 331.77 166.09 288.19 173.13 288.19 154.87 338.36 127.42 338.36"/><path class="cls-3" d="M172.42,288.69l-17.9,49.17h-26.38l2.27-6.24h0s0-.01,0-.01l15.62-42.92h5.98l-15.37,42.23-.49,1.34h14.42l.24-.66,15.62-42.92h5.98M173.85,287.69h-8.11l-15.86,43.58h-12.3l15.86-43.58h-8.11l-15.86,43.58h0s-2.76,7.6-2.76,7.6h28.51l18.63-51.17h0Z"/><path class="cls-2" d="M488.4,338.36l8.58-23.58h-13.45l-8.58,23.58h-7.04l18.26-50.17h27.54l-18.26,50.17h-7.04ZM485.94,308.17h13.45l4.86-13.36h-13.45l-4.86,13.36Z"/><path class="cls-3" d="M512.99,288.69l-9.54,26.2h0s-.02.05-.02.05l-8.34,22.92h-5.98l8.09-22.24.49-1.34h-14.51l-.24.66-8.34,22.92h-5.98l17.9-49.17h26.47M485.23,308.67h14.51l.24-.66,4.5-12.36.49-1.34h-14.51l-.24.66-4.5,12.36-.49,1.34M514.42,287.69h-28.6l-18.63,51.17h8.11l8.58-23.58h12.39l-8.58,23.58h8.11l8.58-23.58h.02v-.05l10.03-27.55h0ZM486.66,307.67l4.5-12.36h12.39l-4.5,12.36h-12.39Z"/><polygon class="cls-2" points="436.43 338.36 454.69 288.19 482.24 288.19 476.99 302.61 469.95 302.61 472.72 294.99 459.26 294.99 445.87 331.77 459.33 331.77 462.11 324.15 469.15 324.15 463.98 338.36 436.43 338.36"/><path class="cls-3" d="M481.52,288.69l-4.88,13.42h-5.98l2.28-6.28.49-1.34h-14.52l-.24.66-13.02,35.78-.49,1.34h14.52l.24-.66,2.53-6.96h5.98l-4.81,13.22h-26.48l17.9-49.17h26.48M482.95,287.69h-28.61l-18.63,51.17h28.61l5.54-15.22h-8.11l-2.77,7.62h-12.4l13.02-35.78h12.4l-2.77,7.62h8.11l5.61-15.42h0Z"/><polygon class="cls-2" points="410.33 338.36 412.73 331.77 420.16 331.77 433.65 294.71 426.22 294.71 428.62 288.19 450.52 288.19 448.12 294.71 440.69 294.71 427.2 331.77 434.63 331.77 432.23 338.36 410.33 338.36"/><path class="cls-3" d="M449.81,288.69l-2.03,5.52h-7.43l-.24.66-13.12,36.06-.49,1.34h7.43l-2.04,5.6h-20.84l2.04-5.6h7.43l.24-.66,13.12-36.06.49-1.34h-7.42l2.03-5.52h20.83M451.24,287.69h-22.96l-2.77,7.52h7.43l-13.12,36.06h-7.43l-2.77,7.6h22.96l2.77-7.6h-7.43l13.12-36.06h7.43l2.77-7.52h0Z"/><polygon class="cls-2" points="399.03 338.36 398.24 304.32 385.85 338.36 378.81 338.36 397.07 288.19 404.49 288.19 405.27 321.88 417.53 288.19 424.58 288.19 406.32 338.36 399.03 338.36"/><path class="cls-3" d="M423.86,288.69l-17.9,49.17h-6.45l-.71-30.9-.12-5.31-1.82,4.99-11.36,31.22h-5.98l17.9-49.17h6.58l.71,30.55.12,5.31,1.82-4.99,11.24-30.87h5.98M425.29,287.69h-8.11l-11.47,31.53-.73-31.53h-8.26l-18.63,51.17h8.11l11.6-31.88.74,31.88h8.12l18.63-51.17h0Z"/><path class="cls-2" d="M367.79,338.36l8.58-23.58h-13.45l-8.58,23.58h-7.04l18.26-50.17h27.54l-18.26,50.17h-7.04ZM365.33,308.17h13.45l4.86-13.36h-13.45l-4.86,13.36Z"/><path class="cls-3" d="M392.38,288.69l-9.54,26.2h0s-.02.05-.02.05l-8.34,22.92h-5.98l8.09-22.24.49-1.34h-14.51l-.24.66-8.34,22.92h-5.98l17.9-49.17h26.47M364.62,308.67h14.51l.24-.66,4.5-12.36.49-1.34h-14.51l-.24.66-4.5,12.36-.49,1.34M393.81,287.69h-28.6l-18.63,51.17h8.11l8.58-23.58h12.39l-8.58,23.58h8.11l8.58-23.58h.02v-.05l10.03-27.55h0ZM366.05,307.67l4.5-12.36h12.39l-4.5,12.36h-12.39Z"/><polygon class="cls-2" points="245.36 338.36 257.66 304.59 249.39 314.86 242.46 314.86 241.44 302.38 228.34 338.36 221.3 338.36 239.56 288.19 246.92 288.19 248.39 306.28 263.51 288.19 270.67 288.19 252.41 338.36 245.36 338.36"/><path class="cls-3" d="M269.96,288.69l-17.9,49.17h-5.99l11.03-30.27,2.06-5.67-3.78,4.7-6.23,7.74h-6.23l-.8-9.74-.37-4.56-1.56,4.3-12.2,33.51h-5.98l17.9-49.17h6.55l1.33,16.41.2,2.43,1.57-1.87,14.19-16.97h6.21M271.38,287.69h-8.11l-14.49,17.33-1.41-17.33h-8.17l-18.63,51.17h8.11l12.44-34.17.87,10.66h7.63l6.53-8.11-11.52,31.61h8.12l18.63-51.17h0Z"/></g></svg>